<svg width="30" height="10" viewBox="0 0 30 10" fill="none" xmlns="http://www.w3.org/2000/svg">
<path d="M6.055 2.79151C4.965 2.79151 4.11375 4.33535 4.11375 6.40159C4.11375 8.46782 4.94375 9.99767 6.055 9.99767C7.16625 9.99767 8.01 8.44216 8.01 6.38992C8.01 4.34935 7.18 2.79151 6.055 2.79151ZM6.0625 8.50979C5.44125 8.50979 4.9875 7.60961 4.9875 6.40159C4.9875 5.1819 5.43375 4.28172 6.055 4.28172C6.6825 4.28172 7.1375 5.1959 7.1375 6.40392C7.1375 7.60961 6.6825 8.50979 6.0625 8.50979ZM8.24875 4.36334H8.79V9.86707H9.65625V2.92444H8.24875V4.36334ZM1.93375 4.28172C2.38875 4.28172 2.75 4.8041 2.88625 5.58302H3.80375C3.6375 3.92024 2.90125 2.79151 1.94125 2.79151C0.85125 2.79151 0 4.33535 0 6.40159C0 8.47015 0.83 10 1.94125 10C2.87875 10 3.63 8.87127 3.79625 7.1945H2.88625C2.8273 7.57615 2.70302 7.91132 2.53238 8.14882C2.36175 8.38633 2.15413 8.5131 1.94125 8.50979C1.31375 8.50979 0.8725 7.60961 0.8725 6.40159C0.8725 5.1819 1.30625 4.28172 1.935 4.28172H1.93375ZM24.7025 5.73228L24.0675 5.55737C23.765 5.47575 23.5488 5.28918 23.5488 4.84608C23.5488 4.36334 23.83 4.12313 24.2113 4.12313C24.6312 4.12313 24.8988 4.45662 24.955 5.007H25.7925C25.6988 3.61008 25.1212 2.79151 24.2337 2.79151C23.3175 2.79151 22.7113 3.66604 22.7113 4.89972C22.7113 6.07976 23.1075 6.76539 23.9088 6.97994L24.5438 7.15485C24.855 7.23414 25.0275 7.46269 25.0275 7.89179C25.0275 8.44216 24.725 8.67071 24.3062 8.67071C23.7937 8.67071 23.505 8.28125 23.4612 7.69123H22.61C22.69 9.04618 23.26 10 24.2975 10C25.2437 10 25.8725 9.1931 25.8725 7.8125C25.8725 6.57649 25.4175 5.93284 24.7025 5.73228ZM9.2225 0.0676313C9.14967 0.062852 9.07708 0.0858206 9.00916 0.135134C8.94125 0.184446 8.87943 0.259067 8.82749 0.354443C8.77555 0.449819 8.73457 0.563946 8.70707 0.689855C8.67956 0.815764 8.6661 0.950812 8.6675 1.08675C8.6675 1.6791 8.905 2.10821 9.2225 2.10821C9.29554 2.11333 9.36838 2.09053 9.43653 2.04122C9.50467 1.99191 9.5667 1.91713 9.61879 1.82147C9.67089 1.72581 9.71195 1.61129 9.73946 1.48494C9.76696 1.3586 9.78033 1.22309 9.77875 1.08675C9.78016 0.950608 9.76666 0.815361 9.73908 0.68929C9.7115 0.563219 9.67041 0.448981 9.61833 0.353571C9.56626 0.258162 9.50429 0.183589 9.43623 0.134422C9.36816 0.0852545 9.29544 0.0625271 9.2225 0.0676313ZM21.9312 5.30317C21.9312 3.79897 21.4412 2.79384 20.4012 2.79384C19.42 2.79384 18.8713 3.71968 18.7638 5.14226H19.6225C19.6663 4.59188 19.8975 4.13479 20.3875 4.13479C20.8275 4.13479 21.0437 4.49627 21.0437 4.93937C21.0437 5.51772 20.6475 5.66464 20.1562 5.75793C19.4925 5.89319 18.6688 6.3223 18.6688 7.93377C18.6688 9.18144 19.1688 9.98601 19.9613 9.98601C20.5825 9.98601 20.9725 9.50326 21.1675 8.73834C21.1963 9.42164 21.47 9.86474 21.8525 9.86474H22.3575V8.42817H21.9325V5.30317H21.9312ZM21.0812 7.04757C21.0812 7.97341 20.6475 8.65672 20.12 8.65672C19.795 8.65672 19.52 8.40019 19.52 7.8638C19.52 7.1805 19.9613 6.99394 20.365 6.91231C20.755 6.84701 20.9713 6.6861 21.08 6.37593L21.0812 7.04757ZM16.4825 2.79151C16 2.79151 15.595 3.16931 15.3075 3.79897V0H14.4413V9.86474H15.2913V8.95289C15.5813 9.61054 15.9913 10 16.4825 10C17.5225 10 18.3088 8.47015 18.3088 6.40159C18.3088 4.33535 17.5088 2.79151 16.4837 2.79151H16.4825ZM16.3538 8.50979C15.7325 8.50979 15.2787 7.60961 15.2787 6.40159C15.2787 5.19589 15.74 4.28172 16.36 4.28172C16.9888 4.28172 17.4287 5.1819 17.4287 6.40392C17.4287 7.60961 16.9738 8.50979 16.3538 8.50979ZM12.37 2.79151C11.8075 2.79151 11.4388 3.22062 11.2213 3.82463V2.92677H10.3625V9.86474H11.2288V6.09375C11.2288 5.03265 11.59 4.28172 12.1238 4.28172C12.6213 4.28172 12.9325 4.93937 12.9325 5.89086V9.86474H13.7975V5.77192C13.7975 4.02752 13.315 2.79151 12.37 2.79151ZM30 6.17304C30 4.18843 29.22 2.79151 28.175 2.79151C27.0625 2.79151 26.2475 4.34935 26.2475 6.40159C26.2475 8.56343 27.12 10 28.1888 10C29.0913 10 29.7975 9.00653 29.9788 7.59795H29.0763C28.9462 8.21362 28.6287 8.56343 28.2025 8.56343C27.6462 8.56343 27.2275 7.91978 27.135 6.79104H30V6.17537V6.17304ZM27.185 5.63666C27.3225 4.67117 27.7125 4.20243 28.16 4.20243C28.65 4.20243 29.0263 4.72481 29.1125 5.63666H27.185Z" fill="black"/>
</svg>
