<svg width="30" height="25" viewBox="0 0 30 25" fill="none" xmlns="http://www.w3.org/2000/svg">
<path d="M5.45927 24.9449V23.2857C5.45927 22.6495 5.09868 22.2348 4.48061 22.2348C4.17163 22.2348 3.83685 22.3454 3.60506 22.705C3.42488 22.4007 3.1674 22.2348 2.78112 22.2348C2.52352 22.2348 2.26616 22.3177 2.06006 22.6219V22.2901H1.51929V24.9449H2.06006V23.4792C2.06006 23.0092 2.29185 22.7878 2.65244 22.7878C3.01279 22.7878 3.19321 23.0368 3.19321 23.4792V24.9449H3.73397V23.4792C3.73397 23.0092 3.99134 22.7878 4.32612 22.7878C4.68671 22.7878 4.86689 23.0368 4.86689 23.4792V24.9449H5.45927ZM13.4677 22.2901H12.5922V21.4882H12.0515V22.2901H11.5622V22.8154H12.0514V24.0323C12.0514 24.6408 12.2832 25.0002 12.9012 25.0002C13.133 25.0002 13.3904 24.9173 13.5708 24.8067L13.4162 24.3088C13.2617 24.4194 13.0815 24.4472 12.9527 24.4472C12.6952 24.4472 12.5922 24.2813 12.5922 24.0046V22.8154H13.4677V22.2901ZM18.0514 22.2347C17.7425 22.2347 17.5365 22.4007 17.4077 22.6219V22.2901H16.8669V24.9449H17.4077V23.4516C17.4077 23.0092 17.5878 22.7603 17.9226 22.7603C18.0256 22.7603 18.1544 22.788 18.2574 22.8156L18.4119 22.2625C18.3089 22.2348 18.1544 22.2348 18.0514 22.2348V22.2347ZM11.1244 22.5113C10.8668 22.3177 10.5064 22.2348 10.1201 22.2348C9.50213 22.2348 9.09016 22.5666 9.09016 23.0921C9.09016 23.5346 9.39914 23.7834 9.93991 23.8664L10.1974 23.8941C10.4807 23.9493 10.6352 24.0323 10.6352 24.1707C10.6352 24.3641 10.4292 24.5025 10.0686 24.5025C9.70811 24.5025 9.42483 24.3641 9.24453 24.226L8.98705 24.6684C9.27034 24.8896 9.65662 25.0002 10.0428 25.0002C10.7638 25.0002 11.1759 24.6408 11.1759 24.1429C11.1759 23.6728 10.8411 23.4239 10.3261 23.341L10.0686 23.3133C9.8368 23.2856 9.65662 23.2304 9.65662 23.0645C9.65662 22.8709 9.8368 22.7603 10.1201 22.7603C10.4292 22.7603 10.7382 22.8984 10.8926 22.9815L11.1244 22.5113ZM25.4935 22.2348C25.1844 22.2348 24.9784 22.4007 24.8496 22.6219V22.2901H24.3089V24.9449H24.8496V23.4516C24.8496 23.0092 25.0299 22.7603 25.3646 22.7603C25.4677 22.7603 25.5965 22.788 25.6995 22.8156L25.854 22.2625C25.751 22.2348 25.5965 22.2348 25.4935 22.2348ZM18.5922 23.6175C18.5922 24.4194 19.1072 25.0002 19.9055 25.0002C20.266 25.0002 20.5235 24.9173 20.781 24.6961L20.5235 24.226C20.3175 24.3919 20.1115 24.4748 19.8797 24.4748C19.4419 24.4748 19.133 24.1429 19.133 23.6175C19.133 23.1198 19.4419 22.7878 19.8797 22.7603C20.1115 22.7603 20.3175 22.8431 20.5235 23.0092L20.781 22.539C20.5235 22.3177 20.266 22.2348 19.9055 22.2348C19.1072 22.2348 18.5922 22.8156 18.5922 23.6175ZM23.5879 23.6175V22.2901H23.0471V22.6219C22.8668 22.3731 22.6094 22.2348 22.2746 22.2348C21.5793 22.2348 21.0386 22.8156 21.0386 23.6175C21.0386 24.4194 21.5793 25.0002 22.2746 25.0002C22.6351 25.0002 22.8927 24.862 23.0471 24.6131V24.9449H23.5879V23.6175ZM21.605 23.6175C21.605 23.1474 21.8883 22.7603 22.3518 22.7603C22.7895 22.7603 23.0986 23.1198 23.0986 23.6175C23.0986 24.0876 22.7895 24.4748 22.3518 24.4748C21.8883 24.447 21.605 24.0876 21.605 23.6175ZM15.1416 22.2348C14.4205 22.2348 13.9055 22.7878 13.9055 23.6175C13.9055 24.4472 14.4204 25.0002 15.1673 25.0002C15.5278 25.0002 15.8884 24.8896 16.1716 24.6408L15.914 24.226C15.7081 24.3919 15.4506 24.5025 15.1931 24.5025C14.8583 24.5025 14.5235 24.3366 14.4462 23.8663H16.2746V23.6452C16.3004 22.7878 15.8369 22.2348 15.1415 22.2348H15.1416ZM15.1416 22.7325C15.4763 22.7325 15.7082 22.9539 15.7596 23.3687H14.472C14.5235 23.0092 14.7553 22.7325 15.1416 22.7325ZM28.5578 23.6175V21.2393H28.017V22.6219C27.8368 22.3731 27.5793 22.2348 27.2445 22.2348C26.5492 22.2348 26.0085 22.8156 26.0085 23.6175C26.0085 24.4194 26.5492 25.0002 27.2445 25.0002C27.6051 25.0002 27.8626 24.862 28.017 24.6131V24.9449H28.5578V23.6175ZM26.575 23.6175C26.575 23.1474 26.8582 22.7603 27.3218 22.7603C27.7596 22.7603 28.0685 23.1198 28.0685 23.6175C28.0685 24.0876 27.7596 24.4748 27.3218 24.4748C26.8582 24.447 26.575 24.0876 26.575 23.6175ZM8.49778 23.6175V22.2901H7.95701V22.6219C7.77672 22.3731 7.51923 22.2348 7.18445 22.2348C6.48919 22.2348 5.94843 22.8156 5.94843 23.6175C5.94843 24.4194 6.48919 25.0002 7.18445 25.0002C7.54504 25.0002 7.80252 24.862 7.95701 24.6131V24.9449H8.49778V23.6175ZM6.48919 23.6175C6.48919 23.1474 6.77248 22.7603 7.23595 22.7603C7.67372 22.7603 7.98282 23.1198 7.98282 23.6175C7.98282 24.0876 7.67372 24.4748 7.23595 24.4748C6.77248 24.447 6.48919 24.0876 6.48919 23.6175Z" fill="black"/>
<path d="M10.9441 2.12988H19.0556V17.7822H10.9441V2.12988Z" fill="#FF5F00"/>
<path d="M11.4592 9.95553C11.4592 6.77534 12.8498 3.95455 14.987 2.12932C13.4163 0.801945 11.4336 0 9.27048 0C4.14585 0 0 4.45227 0 9.95553C0 15.4587 4.14585 19.9111 9.27036 19.9111C11.4334 19.9111 13.4162 19.1091 14.987 17.7816C12.8498 15.9841 11.4592 13.1357 11.4592 9.95553Z" fill="#EB001B"/>
<path d="M30 9.95553C30 15.4587 25.8541 19.9111 20.7296 19.9111C18.5665 19.9111 16.5837 19.1091 15.0129 17.7816C17.176 15.9565 18.5408 13.1357 18.5408 9.95553C18.5408 6.77534 17.1502 3.95455 15.0129 2.12932C16.5836 0.801944 18.5665 0 20.7296 0C25.8541 0 30.0001 4.47998 30.0001 9.95553H30Z" fill="#F79E1B"/>
</svg>
