<svg width="20" height="18" viewBox="0 0 20 18" fill="none" xmlns="http://www.w3.org/2000/svg">
<path d="M6.29091 17.9997C7.82649 18.0104 9.34871 17.6833 10.7693 17.0374C12.1898 16.3915 13.4805 15.4396 14.5663 14.237C15.6521 13.0343 16.5116 11.6049 17.0948 10.0315C17.678 8.45817 17.9733 6.77222 17.9636 5.07146V4.47741C18.7596 3.83149 19.4486 3.03775 20 2.13139C19.2505 2.49446 18.4574 2.73526 17.6455 2.84627C18.5063 2.27817 19.1522 1.38395 19.4636 0.32908C18.6614 0.862162 17.7817 1.23691 16.8636 1.43664C16.2454 0.707028 15.4273 0.223415 14.5359 0.0606334C13.6445 -0.102148 12.7295 0.0649767 11.9325 0.536149C11.1355 1.00732 10.5009 1.75627 10.1269 2.66712C9.75293 3.57797 9.6604 4.59994 9.86364 5.5749C8.23275 5.48624 6.63701 5.01812 5.18032 4.20103C3.72364 3.38393 2.43867 2.23618 1.40909 0.832518C0.88993 1.83051 0.73257 3.00971 0.968872 4.13137C1.20518 5.25303 1.81748 6.23332 2.68182 6.87377C2.04419 6.84653 1.42132 6.65337 0.863636 6.30992V6.36026C0.85797 7.40322 1.1752 8.41683 1.76246 9.23215C2.34971 10.0475 3.17152 10.6152 4.09091 10.8409C3.49785 11.0175 2.87663 11.045 2.27273 10.9214C2.5389 11.8109 3.04698 12.5874 3.72731 13.1444C4.40765 13.7014 5.2269 14.0117 6.07273 14.0327C4.62656 15.322 2.82917 16.0317 0.972727 16.0464C0.64723 16.036 0.322497 16.0057 0 15.9558C1.87905 17.2817 4.06291 17.9808 6.29091 17.9695" fill="black"/>
</svg>
