<svg width="30" height="10" viewBox="0 0 30 10" fill="none" xmlns="http://www.w3.org/2000/svg">
<path d="M21.8062 0.408724C21.1081 0.13438 20.3708 -0.00395156 19.6284 8.58919e-05C17.2313 8.58919e-05 15.5372 1.3167 15.5269 3.20091C15.5072 4.5858 16.7278 5.36639 17.6503 5.83312C18.5981 6.31105 18.915 6.60861 18.9103 7.03253C18.9056 7.68574 18.1528 7.97719 17.46 7.97719C16.4972 7.97719 15.975 7.83453 15.1697 7.46767L14.8706 7.31379L14.5294 9.49048C15.1153 9.75033 16.1653 9.9786 17.2491 10C19.8028 10 21.4678 8.6946 21.4866 6.68198C21.5063 5.57835 20.8528 4.7407 19.4606 4.04978C18.6206 3.60446 18.0947 3.30078 18.0947 2.84425C18.0947 2.44071 18.5438 2.01678 19.4813 2.01678C20.1034 1.99984 20.7219 2.12445 21.2972 2.38262L21.5269 2.4937L21.8634 0.397515L21.8062 0.408724ZM28.0378 0.180457H26.1628C25.5769 0.180457 25.1419 0.350638 24.8831 0.982448L21.2794 9.86141H23.8284L24.3422 8.40723L27.4519 8.41232C27.5297 8.75167 27.7491 9.86039 27.7491 9.86039H30L28.0378 0.180457ZM12.075 0.100972H14.5022L12.9834 9.786H10.5563L12.075 0.0958762V0.100972ZM5.90344 5.43467L6.15188 6.78287L8.52938 0.180457H11.1028L7.27406 9.8451H4.71187L2.61188 1.66113C2.59579 1.59315 2.56712 1.52945 2.52763 1.47391C2.48814 1.41837 2.43865 1.37216 2.38219 1.3381C1.62786 0.911632 0.827652 0.588833 0 0.377133L0.0290625 0.174344H3.945C4.47281 0.195744 4.90219 0.377134 5.04844 0.992638L5.90344 5.43976V5.43467ZM25.0341 6.42722L26.0063 3.71553C25.9912 3.74101 26.2059 3.15811 26.3278 2.79126L26.4937 3.62382L27.0563 6.42111H25.0341V6.42722Z" fill="black"/>
</svg>
