<svg width="23" height="16" viewBox="0 0 23 16" fill="none" xmlns="http://www.w3.org/2000/svg">
<path d="M13.6554 15.8115H19.405C20.1155 15.8115 20.7192 15.6512 21.2205 15.372L13.6554 10.8593V15.8115ZM22.8764 13.0121C22.9583 12.6467 23 12.2596 23 11.8582V10.0615H17.9295L22.8749 13.0121H22.8764ZM0.125816 2.78821C0.0406507 3.17054 -0.00153529 3.56118 4.26761e-05 3.95287V5.74963H5.0899L0.125816 2.78821ZM9.34319 0H3.59356C2.88815 0 2.2884 0.158115 1.78926 0.433378L9.34319 4.93965V0ZM1.81225 15.3896C2.30672 15.657 2.89858 15.8115 3.59356 15.8115H9.34319V10.897L1.81225 15.3896ZM4.26761e-05 10.0618V11.8586C4.26761e-05 12.2722 0.0438836 12.6707 0.130487 13.0455L5.13231 10.0618H4.26761e-05ZM21.2431 0.450987C20.7379 0.164224 20.1259 0 19.405 0H13.6554V4.97738L21.2431 0.450987ZM22.9986 5.74963V3.95287C22.9986 3.55974 22.958 3.18062 22.8793 2.82199L17.9719 5.74963H22.9986Z" fill="#2E3192"/>
<path d="M17.9719 5.74963L22.8792 2.82199C22.6543 1.79281 22.1066 0.940783 21.2431 0.450987L13.6554 4.97738V0H12.9367V6.46833H22.9985V5.74963H17.9719ZM0 9.34315V10.0618H5.13227L0.130445 13.0455C0.367976 14.0715 0.932159 14.9138 1.81221 15.3896L9.34315 10.897V15.8115H10.0619V9.34315H0ZM22.9985 9.34315H12.9367V15.8115H13.6554V10.8593L21.2205 15.3723C22.0904 14.8879 22.6449 14.0406 22.8749 13.0128L17.9295 10.0618H22.9985V9.34315ZM9.34315 0V4.93965L1.78921 0.433378C0.915988 0.91491 0.357915 1.76082 0.125414 2.78821L5.08986 5.74963H0V6.46833H10.0619V0H9.34315Z" fill="#E6E7E8"/>
<path d="M12.9367 6.46833V0H10.0619V6.46833H0V9.34315H10.0619V15.8115H12.9367V9.34315H22.9985V6.46833H12.9367Z" fill="#BE1E2D"/>
<path d="M7.88366 5.7498L0.678652 1.44871C0.523772 1.6787 0.399436 1.93168 0.296661 2.2012L6.24286 5.7498H7.88258H7.88366ZM22.6717 13.6879L16.6299 10.062H14.9568L22.2563 14.4529C22.4256 14.2164 22.5651 13.9599 22.6717 13.6893V13.6879ZM21.8197 0.859375L13.6444 5.7498L15.3043 5.75087L22.3587 1.52741C22.2013 1.24101 22.0353 1.0563 21.8197 0.859375ZM0.651701 14.3293C0.813349 14.5755 1.00788 14.7985 1.2299 14.992L9.36598 10.062H7.72626L0.651701 14.3293Z" fill="#BE1E2D"/>
</svg>
