<svg width="28" height="30" viewBox="0 0 28 30" fill="none" xmlns="http://www.w3.org/2000/svg">
<path d="M5.5 0.833008L1.25 6.49967V26.333C1.25 27.0845 1.54851 27.8051 2.07986 28.3365C2.61122 28.8678 3.33189 29.1663 4.08333 29.1663H23.9167C24.6681 29.1663 25.3888 28.8678 25.9201 28.3365C26.4515 27.8051 26.75 27.0845 26.75 26.333V6.49967L22.5 0.833008H5.5Z" stroke="#34251F" stroke-linecap="round" stroke-linejoin="round"/>
<path d="M1.25 6.5H26.75" stroke="#34251F" stroke-linecap="round" stroke-linejoin="round"/>
<path d="M19.6673 12.1665C19.6673 13.6694 19.0703 15.1107 18.0076 16.1734C16.9449 17.2361 15.5035 17.8332 14.0007 17.8332C12.4978 17.8332 11.0564 17.2361 9.99371 16.1734C8.93101 15.1107 8.33398 13.6694 8.33398 12.1665" stroke="#34251F" stroke-linecap="round" stroke-linejoin="round"/>
</svg>
